<svg width="39" height="38" viewBox="0 0 39 38" fill="none" xmlns="http://www.w3.org/2000/svg">
<path d="M29.075 24.6726C31.7305 22.0171 33.2223 18.4155 33.2223 14.66C33.2223 10.9045 31.7305 7.30288 29.075 4.64737C26.4195 1.99185 22.8178 0.5 19.0623 0.5C15.3069 0.5 11.7052 1.99185 9.04971 4.64737C6.3942 7.30288 4.90234 10.9045 4.90234 14.66C4.90234 18.4155 6.3942 22.0171 9.04971 24.6726C11.7052 27.3281 15.3069 28.82 19.0623 28.82C22.8178 28.82 26.4195 27.3281 29.075 24.6726Z" stroke="#8AAAE5" stroke-linecap="round" stroke-linejoin="round"/>
<path d="M6.79714 21.6042L0.5 32.5128L7.30286 30.6899L9.12857 37.4928L14.5914 28.0299M31.3457 21.6042L37.6429 32.5128L30.8371 30.6899L29.0143 37.4928L23.5514 28.0299M19.6429 6.9699L21.5943 10.8956C21.6367 10.9954 21.7053 11.0818 21.7928 11.1456C21.8803 11.2095 21.9835 11.2485 22.0914 11.2585L26.4257 11.9156C26.5497 11.9315 26.6667 11.9824 26.7628 12.0624C26.8589 12.1424 26.9302 12.2481 26.9683 12.3672C27.0064 12.4863 27.0097 12.6138 26.9779 12.7347C26.946 12.8557 26.8804 12.965 26.7886 13.0499L23.5857 16.0899C23.5377 16.1806 23.5126 16.2816 23.5126 16.3842C23.5126 16.4868 23.5377 16.5878 23.5857 16.6785L24.2 20.987C24.2267 21.1119 24.2164 21.2418 24.1704 21.3609C24.1244 21.48 24.0447 21.5832 23.9411 21.6577C23.8374 21.7323 23.7143 21.775 23.5868 21.7807C23.4592 21.7865 23.3328 21.7549 23.2229 21.6899L19.3657 19.6499C19.266 19.6049 19.1579 19.5817 19.0486 19.5817C18.9392 19.5817 18.8311 19.6049 18.7314 19.6499L14.8743 21.6899C14.7645 21.7531 14.6388 21.7833 14.5122 21.7767C14.3857 21.7701 14.2638 21.7271 14.1611 21.6529C14.0585 21.5786 13.9795 21.4762 13.9336 21.3581C13.8878 21.24 13.8771 21.1111 13.9029 20.987L14.6286 16.6785C14.6601 16.5786 14.6661 16.4725 14.6461 16.3697C14.6262 16.2669 14.5809 16.1707 14.5143 16.0899L11.3171 13.0242C11.2312 12.9383 11.1708 12.8302 11.1426 12.712C11.1144 12.5938 11.1196 12.4701 11.1575 12.3546C11.1954 12.2392 11.2645 12.1365 11.3573 12.058C11.45 11.9795 11.5627 11.9282 11.6829 11.9099L16.0143 11.2813C16.1222 11.2714 16.2254 11.2324 16.3129 11.1685C16.4005 11.1046 16.4691 11.0182 16.5114 10.9185L18.4629 6.99276C18.5148 6.88134 18.597 6.78672 18.7 6.71966C18.803 6.6526 18.9228 6.61579 19.0457 6.6134C19.1686 6.61102 19.2898 6.64317 19.3953 6.70619C19.5009 6.76921 19.5866 6.86057 19.6429 6.9699Z" stroke="#8AAAE5" stroke-linecap="round" stroke-linejoin="round"/>
</svg>
